<svg  viewBox="0 0 37 37" fill="none" xmlns="http://www.w3.org/2000/svg">
<path d="M2.20888 29.7287C0.923161 32.6001 0.751735 35.1287 0.751735 36.1144C0.751735 36.3716 0.966021 36.543 1.18031 36.543C2.42317 36.4573 6.10889 36.0716 9.36603 34.0573C9.88032 33.7144 10.3946 33.4144 10.8232 33.0716C16.5232 28.9573 17.6803 22.6573 17.8517 21.0716C18.0232 20.943 18.1089 20.8573 18.2375 20.7287H18.6232C18.7946 20.8573 18.8803 20.943 19.0517 21.1144C19.1803 22.5287 19.9946 27.6287 24.7089 31.9144C24.8375 32.043 25.0089 32.043 25.1803 32.0001C25.3946 31.9144 25.6089 31.7859 25.866 31.6144C26.1232 31.4859 26.1232 31.143 25.9089 30.9716C21.2803 26.9001 20.6375 21.2001 20.5946 20.943C28.6946 22.1001 31.9518 28.0144 31.9518 27.9287C32.5518 28.7859 32.6375 29.0859 32.8089 29.4287C32.8089 29.4287 34.0518 31.4859 34.5232 34.4001C34.566 34.6573 34.3518 34.9144 34.0518 34.8716C32.7232 34.6573 31.5232 34.2716 30.6232 33.9287C30.4946 33.8858 30.3232 33.8859 30.2375 33.9716C30.0232 34.143 29.8089 34.3144 29.5946 34.443C29.3375 34.6144 29.3803 35.043 29.6803 35.1287C31.1375 35.7716 33.3232 36.4144 35.8518 36.5001C36.1089 36.5001 36.2803 36.2858 36.2803 36.0716C36.0661 31.3573 33.7946 27.8858 33.7946 27.8858C33.5375 27.4144 33.1946 26.943 32.8089 26.4287C32.8089 26.4287 28.8232 20.3859 20.8518 19.3573C20.6375 19.3144 20.5089 19.143 20.5089 18.9716C20.5089 18.7573 20.5089 18.5858 20.5089 18.4573C20.5089 18.3287 20.7232 18.243 20.8089 18.2001C26.6375 17.3858 30.2803 14.1287 31.8661 12.3287C31.9946 12.2001 31.9946 11.9859 31.9089 11.8573C31.7803 11.643 31.6518 11.3858 31.5232 11.1716C31.3946 10.9144 31.0518 10.9144 30.8375 11.1287C29.3375 12.9716 26.0803 15.8858 20.5946 16.6573C20.6375 16.3573 21.4518 9.41442 27.5375 5.34299C28.0946 5.00013 28.6089 4.65728 29.0803 4.40014C29.0803 4.40014 31.2232 3.15728 34.0518 2.72871C34.3089 2.68585 34.566 2.94299 34.5232 3.20013C34.3089 4.61442 33.8803 5.81442 33.5375 6.71442C33.4946 6.843 33.4946 7.01442 33.5803 7.10014C33.7518 7.31442 33.9232 7.57157 34.0518 7.78585C34.2232 8.043 34.6518 8.00013 34.7803 7.70013C36.0232 4.87156 36.1946 2.38585 36.1946 1.40014C36.1946 1.14299 35.9803 0.971564 35.766 0.971564C34.5232 1.05728 30.8375 1.44299 27.5803 3.45728C27.0232 3.80014 26.466 4.14299 26.1232 4.44299C20.4232 8.55728 19.266 14.8573 19.0946 16.443C18.9232 16.5716 18.8375 16.6573 18.7089 16.7859H18.3232C18.1518 16.6573 18.066 16.5716 17.8946 16.4001C17.766 14.9859 16.9517 9.92871 12.2375 5.60014C12.1089 5.47156 11.9375 5.47156 11.766 5.55728C11.5517 5.68585 11.2946 5.81442 11.0803 5.94299C10.8232 6.07157 10.8232 6.41442 11.0375 6.58585C15.666 10.6573 16.3089 16.3573 16.3517 16.6144C8.25174 15.5001 5.12317 9.67157 5.03745 9.58585C4.73745 9.11442 4.43745 8.64299 4.13745 8.08585C4.13745 8.08585 2.93745 6.07156 2.42316 3.11442C2.63745 2.90014 2.68031 2.85728 2.89459 2.643C4.22317 2.85728 5.42317 3.243 6.32317 3.58585C6.45174 3.62871 6.62317 3.62871 6.70888 3.50014C6.92317 3.32871 7.13745 3.15728 7.35174 3.02871C7.60888 2.85728 7.56602 2.42871 7.26602 2.30014C5.80888 1.65728 3.62316 1.01443 1.09459 0.928711C0.837444 0.928711 0.666016 1.143 0.666016 1.35728C0.880302 6.07157 3.15174 9.54299 3.15174 9.54299C3.40888 10.0144 3.75174 10.443 4.13745 11.0001C4.13745 11.0001 8.12317 17.043 16.0946 18.0716C16.3089 18.1144 16.4375 18.2858 16.4375 18.4573C16.4375 18.6287 16.4375 18.8001 16.4375 18.9287C16.4375 19.1001 16.266 19.2287 16.1803 19.2287C10.3517 20.0001 6.70888 23.3001 5.12316 25.1001C5.03745 25.2287 4.9946 25.3573 5.03745 25.5287C5.12317 25.7858 5.29459 26.043 5.42317 26.3001C5.55174 26.5573 5.89459 26.5573 6.06602 26.343C7.56603 24.543 10.8232 21.543 16.3517 20.7716C16.3089 21.0716 15.4946 28.0144 9.40888 32.0858C9.19459 32.2573 8.93746 32.3858 8.72317 32.5573C8.46603 32.7287 5.76603 34.2287 2.89459 34.7001C2.63745 34.743 2.38031 34.4858 2.42316 34.2287C2.63745 32.7716 3.06602 31.5287 3.45173 30.6716C3.49459 30.543 3.49459 30.3716 3.40887 30.2859C3.23744 30.0716 3.06603 29.8144 2.93745 29.6001C2.72317 29.3858 2.33745 29.4287 2.20888 29.7287ZM4.13745 29.343C4.95174 30.4144 5.98031 31.4001 6.7946 32.1287C6.92317 32.2573 7.13745 32.2573 7.26602 32.1716C7.48031 32.043 7.73745 31.9144 7.95174 31.7858C8.16602 31.6573 8.20888 31.3144 7.9946 31.143C6.28031 29.6859 5.08031 27.8858 5.08031 27.8858C4.78031 27.4573 4.48031 26.943 4.18031 26.3858C2.68031 23.4716 2.29459 20.8144 2.25174 19.0144C2.25174 18.243 2.29459 17.5144 2.3803 16.8716C2.42316 16.743 2.42316 16.6573 2.42316 16.6573C2.63745 15.0287 3.02316 13.7001 3.40887 12.7573C3.45173 12.6287 3.45174 12.4573 3.36603 12.3716C3.1946 12.2001 3.06602 11.943 2.89459 11.7287C2.72317 11.4716 2.29459 11.5144 2.16602 11.8144C1.69459 13.0144 1.13744 14.643 0.880302 16.6573C0.880302 16.6573 -0.148271 22.143 3.23745 27.843C3.49459 28.443 3.83745 28.9573 4.13745 29.343ZM32.766 8.1287C31.9518 7.05728 30.9232 6.07156 30.1089 5.34299C29.9803 5.21442 29.8089 5.21442 29.6375 5.30014C29.4232 5.42871 29.166 5.55728 28.9518 5.68585C28.7375 5.81442 28.6946 6.15728 28.9089 6.32871C30.6232 7.78585 31.8232 9.58585 31.8232 9.58585C32.1232 9.97157 32.4232 10.4859 32.7232 11.0859C34.2232 14.0001 34.6089 16.6573 34.6518 18.4573C34.6518 19.2287 34.6089 19.9573 34.5232 20.6001C34.4803 20.7287 34.4803 20.8144 34.4803 20.8144C34.266 22.4858 33.8803 23.8144 33.4946 24.7573C33.4518 24.8859 33.4518 25.0573 33.5803 25.1859C33.7518 25.4001 33.9232 25.6144 34.0518 25.8287C34.2232 26.0859 34.6518 26.043 34.7803 25.743C35.2518 24.543 35.8089 22.8716 36.0661 20.8573C36.0661 20.8573 37.0946 15.3716 33.7089 9.67156C33.4518 9.11442 33.1089 8.60013 32.766 8.1287ZM10.7375 4.48585C10.9089 4.40013 11.166 4.22871 11.3375 4.143C17.166 1.40014 22.2232 2.72871 24.6232 3.71442C24.7518 3.75728 24.9232 3.75728 25.0089 3.67157C25.2232 3.50014 25.4375 3.32871 25.6946 3.15728C25.9518 2.98585 25.9089 2.55728 25.6089 2.42871C22.1803 0.928711 18.6232 0.928711 18.4089 0.928711C18.1517 0.928711 13.3517 0.928706 9.28031 3.41442C8.80888 3.71442 8.38031 4.01442 7.90888 4.35728C7.90888 4.35728 6.53746 5.38585 5.25174 6.71442C5.12317 6.843 5.12317 7.01442 5.20888 7.18585C5.33745 7.44299 5.46602 7.70013 5.59459 7.91442C5.72316 8.17156 6.06602 8.17157 6.23745 8.00014C7.00888 7.143 8.08031 6.11442 9.32317 5.30014C9.7946 5.00014 10.266 4.74299 10.7375 4.48585ZM28.9518 33.1144C28.9518 33.1144 30.2803 32.0859 31.6089 30.7573C31.7375 30.6287 31.7375 30.4573 31.6946 30.2859C31.566 30.0287 31.4375 29.8144 31.3089 29.5573C31.1803 29.3001 30.8375 29.3001 30.666 29.5144C29.9375 30.3287 29.1232 31.1858 27.9232 32.0001C27.5375 32.3001 26.8089 32.7716 26.166 33.1144C20.0803 36.243 14.8089 34.8287 12.3232 33.843C12.1946 33.8001 12.0232 33.8001 11.9375 33.8858C11.7232 34.0573 11.466 34.2287 11.2517 34.3573C10.9946 34.5287 11.0375 34.9573 11.3375 35.0858C14.766 36.5858 18.3232 36.5858 18.5375 36.5858C18.7946 36.5858 23.5946 36.5858 27.666 34.1001C28.0518 33.7573 28.5232 33.4573 28.9518 33.1144ZM18.4517 18.3287C18.6232 18.5001 18.7089 18.5859 18.8803 18.7573C18.7089 18.9287 18.6232 19.0144 18.4517 19.143C18.2375 19.143 18.0232 18.9716 18.0232 18.7144C18.1946 18.5859 18.2803 18.5001 18.4517 18.3287Z" fill="black"/>
</svg>
